<?xml version="1.0" encoding="UTF-8"?>
<svg id="Layer_1" xmlns="http://www.w3.org/2000/svg" version="1.1" viewBox="0 0 612 301.1">
  <!-- Generator: Adobe Illustrator 29.4.0, SVG Export Plug-In . SVG Version: 2.1.0 Build 152)  -->
  <defs>
    <style>
      .st0 {
        fill: #012169;
      }
    </style>
  </defs>
  <path class="st0" d="M45.41,277.02c-7.92,0-12.14-5.02-12.14-13.99v-18.75h4.75v18.48c0,6.07,2.64,9.24,7.39,9.24,5.02,0,7.39-3.17,7.39-8.98v-18.75h4.75v18.75c.26,8.98-4.22,13.99-12.14,13.99"/>
  <path class="st0" d="M118.02,276.49l-12.94-20.07c-.79-1.32-1.85-3.17-2.38-3.96v24.03h-4.75v-32.21h5.02l12.14,19.54c.79,1.32,2.11,3.7,2.64,4.49v-24.29h4.75v32.21h-4.49"/>
  <rect class="st0" x="163.43" y="244.28" width="4.75" height="32.21"/>
  <path class="st0" d="M223.36,276.49h-5.02l-11.09-32.21h5.28l6.6,20.59c.53,1.85,1.58,4.75,1.85,5.81.26-1.06,1.32-3.96,1.85-5.81l6.6-20.59h5.28l-11.35,32.21"/>
  <polyline class="st0" points="272.73 276.49 272.73 244.28 293.59 244.28 293.59 249.03 277.75 249.03 277.75 256.95 286.99 256.95 286.99 261.7 277.75 261.7 277.75 271.74 294.38 271.74 294.38 276.49 272.73 276.49"/>
  <path class="st0" d="M350.62,263.29l6.6,13.2h-5.54l-6.34-12.67h-7.39v12.67h-4.75v-32.21h13.99c5.54,0,10.3,2.9,10.3,9.5.26,5.28-2.38,8.45-6.86,9.5M347.45,248.77h-9.5v10.3h9.5c3.17,0,5.54-1.58,5.54-5.28,0-3.17-2.38-5.02-5.54-5.02Z"/>
  <path class="st0" d="M407.12,277.02c-4.75,0-8.71-2.11-11.35-5.28l3.43-3.43c2.11,2.38,5.28,3.7,8.45,3.7,4.49,0,6.6-1.58,6.6-4.75,0-2.38-1.85-3.7-7.39-5.28-6.86-2.11-10.03-3.7-10.03-9.5s4.75-8.98,10.56-8.98c4.49,0,7.66,1.58,10.56,4.49l-3.43,3.43c-2.11-2.11-4.22-3.17-7.39-3.17-3.7,0-5.28,1.85-5.28,3.96,0,2.38,1.58,3.43,7.13,5.02,6.34,1.85,10.3,3.96,10.3,9.77-.26,6.07-3.96,10.03-12.15,10.03"/>
  <rect class="st0" x="458.6" y="244.28" width="4.75" height="32.21"/>
  <polyline class="st0" points="516.42 249.03 516.42 276.49 511.67 276.49 511.67 249.03 502.17 249.03 502.17 244.28 525.93 244.28 525.93 249.03 516.42 249.03"/>
  <path class="st0" d="M578.47,263.81v12.67h-4.75v-12.67l-11.62-19.54h5.54l5.02,8.98c1.06,1.85,2.64,5.28,3.43,6.34.53-1.32,2.11-4.22,3.43-6.34l5.02-8.98h5.54l-11.62,19.54"/>
  <path class="st0" d="M49.11,220.52c-4.22,0-8.98.26-13.99.53-5.02.26-9.24.53-12.67.53-.79,0-1.85,0-3.17-.26s-2.11-1.06-2.11-2.64c0-1.06.79-2.38,2.11-3.43,1.32-1.06,4.22-2.11,8.98-2.9,1.58-.26,3.17-.53,4.75-1.06s2.9-1.32,4.22-2.64,2.38-3.17,3.17-5.54c.79-2.38,1.06-5.81,1.06-10.03V53.92c0-1.32-.79-2.38-2.11-3.17-1.32-.79-3.17-1.06-5.28-1.58-2.11-.26-4.22-.53-6.6-.53s-4.49-.26-6.34-.53c-3.43-.26-5.54-.79-6.86-1.06s-1.85-1.32-1.85-2.9c0-1.06.53-2.11,1.32-2.9.79-.79,1.85-1.06,3.17-1.58,1.06-.26,2.38-.53,3.7-.53s2.38-.26,3.43-.26h26.93c7.39,0,14.79-.26,22.18-.79,7.39-.53,15.84-.79,25.35-.79,15.58,0,30.1,1.85,43.83,5.81,13.73,3.96,25.61,10.03,35.64,18.22,10.3,8.18,18.22,19.01,24.03,31.68,5.81,12.94,8.98,28.25,8.98,45.94,0,11.09-2.38,21.39-7.39,31.42-4.75,9.77-11.35,18.48-19.8,25.61-8.18,7.39-17.95,12.94-29.04,17.43-11.09,4.22-22.97,6.34-35.64,6.34H49.11M66.8,183.55c0,5.02,1.06,9.5,3.17,13.2,2.11,3.7,5.02,6.86,8.71,9.24,3.43,2.38,7.66,4.22,12.14,5.54,4.49,1.06,9.24,1.85,13.99,1.85,3.96,0,8.71-.53,13.99-1.85,5.28-1.06,10.82-2.9,16.63-5.54,5.81-2.38,11.35-5.81,17.16-10.03s10.82-9.24,15.31-15.05c4.49-5.81,8.18-12.67,11.09-20.33,2.64-7.66,4.22-16.63,4.22-26.67s-1.32-19.27-4.22-27.46c-2.64-8.18-6.6-15.58-11.35-22.18-4.75-6.6-10.3-12.14-16.37-16.9-6.34-4.75-12.67-8.71-19.54-11.88-6.6-3.17-13.47-5.54-20.59-6.86-6.86-1.58-13.47-2.11-19.54-2.11s-10.82.26-14.26.79c-3.43.53-5.81,1.32-7.39,2.11s-2.64,1.85-2.9,3.17c-.26,1.06-.53,2.38-.53,3.17l.26,127.79h0Z"/>
  <path class="st0" d="M271.15,226.06c-6.86,0-12.67-1.06-17.43-2.9-4.75-1.85-8.18-4.75-10.82-8.45s-4.49-8.18-5.54-13.2-1.58-10.82-1.58-17.16c0-4.49,0-9.5.26-15.05,0-5.54.26-11.09.26-16.63s0-11.35.26-16.63c0-5.54.26-10.3.26-14.52,0-2.11-1.06-3.43-2.9-4.22-1.85-.53-3.96-1.06-5.54-1.58-3.43-1.06-5.81-1.85-7.13-2.11-1.06-.53-1.85-1.32-1.85-2.11,0-1.32.79-2.11,2.11-2.38s3.17-.26,5.28-.26,4.22,0,6.34.26,4.22.26,6.34.26,4.49,0,6.6-.26,4.49-.26,6.6-.26,3.17.53,3.7,1.06c.53.79.79,2.38.79,4.49,0,13.2,0,26.4-.26,39.6-.26,13.2-.26,26.4-.26,39.6,0,6.07,2.11,10.82,6.07,13.99,4.22,3.17,9.77,4.75,17.16,4.75,8.18,0,14.79-.79,19.27-2.38,4.75-1.58,8.18-3.7,10.56-6.07,2.38-2.38,3.96-5.28,4.49-8.45.79-3.17,1.06-6.34,1.06-9.24,0-10.56,0-21.12.26-31.68.26-10.56.26-21.12.26-31.68,0-.79-.26-1.58-.53-2.11s-1.06-1.06-2.11-1.58c-1.06-.26-2.64-.79-4.49-1.32s-4.75-1.32-8.18-2.11c-1.06-.26-2.9-1.06-5.28-1.85-2.38-.79-3.43-1.85-3.43-2.9s.79-1.58,2.11-1.85,2.9-.53,4.49-.53c2.64,0,5.02,0,7.66.26,2.38.26,5.02.26,7.66.26,2.9,0,5.81,0,8.71-.26,2.9-.26,5.81-.26,8.71-.26,1.06,0,2.38.26,3.96,1.06s2.38,2.38,2.38,5.28c0,15.05-.26,29.83-.53,44.88-.26,14.79-.53,29.83-.53,44.88,0,3.17,1.06,5.02,2.9,5.81s3.43,1.06,4.75,1.06c5.81,0,9.77,0,11.88.26,2.38.26,3.43,1.06,3.43,2.64,0,1.06-.53,1.85-1.32,2.38-.79.26-2.38.79-4.49,1.06-10.56,1.58-18.75,2.9-24.55,3.96-6.07,1.06-9.77,1.85-11.09,1.85-1.06,0-1.85-.53-2.11-1.32-.26-.79-.26-2.11-.26-3.43v-6.86c0-2.38-.79-3.43-2.11-3.43-1.06,0-2.9.79-5.02,2.64s-5.02,3.7-8.45,6.07c-3.43,2.38-7.39,4.22-12.14,6.07-5.54,1.58-10.82,2.64-16.63,2.64"/>
  <path class="st0" d="M383.09,52.33c0-3.96-.79-6.86-2.11-8.45-1.58-1.58-3.17-2.9-5.02-3.43-1.85-.79-3.43-1.32-5.02-1.58s-2.11-1.32-2.11-2.64c0-1.06.53-1.85,1.58-2.11,1.06-.53,2.64-1.06,4.75-1.85l20.07-7.66c.79-.26,1.58-.53,2.38-.53h2.64c.79,0,1.58.26,2.11,1.06.79.79,1.06,2.11,1.06,4.22v121.19c0,3.17.79,4.75,2.64,4.75.53,0,1.85-.53,4.49-1.85,2.64-1.32,5.81-2.9,9.24-5.02,3.43-2.11,7.39-4.49,11.35-6.86,3.96-2.64,7.66-5.02,11.09-7.39,3.43-2.38,6.07-4.49,8.45-6.34,2.38-1.85,3.43-3.43,3.43-4.22,0-1.85-.53-3.43-1.85-4.49-1.32-1.06-2.38-1.85-3.96-2.64-1.32-.79-2.64-1.32-3.96-2.11-1.06-.79-1.85-1.58-1.85-2.9,0-.79.53-1.58,1.32-2.11.79-.53,1.85-.79,2.9-.79,3.17,0,6.86,0,10.82.26s7.92.26,11.88.26c3.7,0,7.66,0,11.62-.26s7.66-.26,10.56-.26c1.32,0,2.64.26,3.96.53,1.06.26,1.85,1.32,1.85,2.9,0,.79-.53,1.58-1.58,2.11-1.06.79-2.38,1.32-3.96,1.85s-3.17,1.06-4.75,1.58c-1.58.53-2.9,1.06-3.96,1.32-2.11,1.06-6.34,3.17-12.67,6.6-6.34,3.43-12.67,7.13-19.27,11.09-6.6,3.96-12.41,7.66-17.69,11.09-5.02,3.43-7.66,5.54-7.66,6.34,0,1.06.26,1.85.79,2.64.53.79,1.06,1.32,1.58,1.58l51.22,46.47c2.9,2.64,5.81,4.75,8.71,6.34,2.9,1.32,5.28,2.64,7.66,3.43,2.11.79,3.96,1.58,5.28,2.11s1.85,1.32,1.85,2.38c0,1.85-2.64,2.9-7.66,2.9-3.17,0-6.6-.26-10.3-.53-3.7-.26-7.92-.53-12.41-.53-3.96,0-7.66.26-11.35.53-3.43.26-7.13.53-10.56.53-3.17,0-5.54-.26-6.86-.53-1.32-.26-2.11-1.06-2.11-2.38s.79-2.38,2.38-2.9c1.58-.53,3.7-1.06,6.34-1.32,1.58-.26,2.9-.79,3.96-1.58s1.58-1.58,1.58-2.64-1.06-2.64-3.17-4.75l-44.62-42.24c-1.32-1.06-2.11-1.85-2.64-1.85-1.32,0-2.11.53-2.11,1.58v41.98c0,3.43.79,5.54,2.11,6.86,1.58,1.32,2.9,2.11,4.22,2.38,2.38.79,4.49,1.32,6.07,1.58,1.58.26,2.64,1.06,2.64,2.64,0,1.06-.79,1.85-2.11,2.38-1.58.26-2.9.53-4.49.53-3.43,0-6.86-.26-10.03-.53-3.17-.26-6.34-.53-9.77-.53-3.7,0-7.39.26-11.35.53-3.96.26-7.39.53-10.03.53-1.06,0-2.38-.26-4.22-.53-1.85-.26-2.9-1.06-2.9-2.64,0-1.32.53-2.38,1.58-2.9,1.06-.53,2.38-1.06,3.96-1.32,1.85-.53,3.96-1.06,5.54-1.58,1.85-.53,3.43-1.06,4.75-1.85s2.38-2.11,3.17-3.43c.79-1.58,1.06-3.96,1.06-7.13V52.33"/>
  <path class="st0" d="M522.5,151.87c-.26,1.06-.53,2.38-.53,4.22v6.34c0,6.34.53,12.41,1.58,18.48,1.06,5.81,3.17,11.09,6.07,15.84,3.17,4.49,7.39,8.18,12.94,11.09,5.54,2.9,12.94,4.22,21.91,4.22,5.81,0,10.03-.53,13.2-1.85,3.17-1.06,5.54-2.64,7.39-3.96,1.85-1.58,3.17-2.9,4.22-4.22s2.11-1.85,3.17-1.85c1.85,0,2.64.79,2.64,2.38,0,.53-.79,2.11-2.38,4.49s-4.22,5.02-7.66,7.92c-3.43,2.9-7.92,5.54-13.47,7.66-5.54,2.38-11.88,3.43-19.54,3.43-16.37,0-29.04-5.28-38.02-16.11-8.98-10.82-13.47-25.35-13.47-44.09,0-6.86,1.06-13.99,3.17-21.39,2.11-7.39,5.54-13.99,9.77-20.07,4.49-6.07,10.03-11.09,16.63-15.05,6.6-3.96,14.79-5.81,24.03-5.81,8.45,0,15.58,1.58,21.39,4.75,5.81,3.17,10.56,6.86,13.99,11.35,3.43,4.49,6.07,8.98,7.66,13.73,1.58,4.75,2.38,8.71,2.38,11.88,0,2.64-.26,4.49-1.06,5.54-.79.79-2.38,1.32-4.75,1.32l-71.29-.26M550.75,143.16c6.6,0,11.62-.26,15.58-.79s7.13-1.32,9.24-2.64c2.11-1.06,3.7-2.64,4.22-4.49.79-1.85,1.06-3.96,1.06-6.86,0-5.02-2.11-9.5-6.34-12.94s-9.24-5.28-15.58-5.28c-5.28,0-10.03,1.06-14.26,3.43-4.22,2.38-7.66,5.02-10.56,8.18s-5.02,6.34-6.6,9.77-2.38,6.34-2.38,8.45c0,.53.26,1.06.53,1.32s1.32.53,2.9.79,4.22.26,7.66.53c3.17.26,8.18.53,14.52.53Z"/>
</svg>